<svg xmlns="http://www.w3.org/2000/svg" version="1.1" xmlns:xlink="http://www.w3.org/1999/xlink" xmlns:svgjs="http://svgjs.dev/svgjs" width="128" height="128" viewBox="0 0 128 128"><g transform="matrix(0.8046875,0,0,0.8046875,12.760752631578946,12.758967778039931)"><svg viewBox="0 0 95 95" data-background-color="#ffffff" preserveAspectRatio="xMidYMid meet" height="128" width="128" xmlns="http://www.w3.org/2000/svg" xmlns:xlink="http://www.w3.org/1999/xlink"><g id="tight-bounds" transform="matrix(1,0,0,1,-0.24049999999999727,-0.23885377586206857)"><svg viewBox="0 0 95.481 95.47770755172414" height="95.47770755172414" width="95.481"><g><svg viewBox="0 0 95.481 95.47770755172414" height="95.47770755172414" width="95.481"><g><svg viewBox="0 0 95.481 95.47770755172414" height="95.47770755172414" width="95.481"><g id="textblocktransform"><svg viewBox="0 0 95.481 95.47770755172414" height="95.47770755172414" width="95.481" id="textblock"><g><svg viewBox="0 0 95.481 95.47770755172414" height="95.47770755172414" width="95.481"><g><svg viewBox="0 0 95.481 95.47770755172414" height="95.47770755172414" width="95.481"><g><svg xmlns="http://www.w3.org/2000/svg" xmlns:xlink="http://www.w3.org/1999/xlink" version="1.1" x="0" y="0" viewBox="3 3.0090000000000034 58 57.998000000000005" style="enable-background:new 0 0 64 64;" xml:space="preserve" height="95.47770755172414" width="95.481" class="icon-icon-0" data-fill-palette-color="accent" id="icon-0"><g fill="#dd9242" data-fill-palette-color="accent"><path d="M33.503 47.651l0.152-0.563L37 46.231v-4.447l-3.345-0.856-0.152-0.563c-0.316-1.175-0.779-2.295-1.376-3.331l-0.292-0.506 1.759-2.968-3.146-3.146-2.968 1.759-0.506-0.292c-1.036-0.597-2.156-1.06-3.331-1.376l-0.563-0.152-0.856-3.345h-4.447l-0.856 3.345-0.563 0.152c-1.175 0.316-2.295 0.779-3.331 1.376l-0.506 0.292-2.968-1.759-3.146 3.146 1.759 2.968-0.292 0.506c-0.597 1.036-1.06 2.156-1.376 3.331l-0.152 0.563L3 41.784v4.447l3.345 0.856 0.152 0.563c0.316 1.175 0.779 2.295 1.376 3.331l0.292 0.506-1.759 2.968 3.146 3.146 2.968-1.759 0.506 0.292c1.036 0.597 2.156 1.06 3.331 1.376l0.563 0.152 0.856 3.345h4.447l0.856-3.345 0.563-0.152c1.175-0.316 2.295-0.779 3.331-1.376l0.506-0.292 2.968 1.759 3.146-3.146-1.759-2.968 0.292-0.506C32.724 49.946 33.187 48.826 33.503 47.651zM20 56.007c-6.617 0-12-5.383-12-12s5.383-12 12-12 12 5.383 12 12S26.617 56.007 20 56.007z" fill="#dd9242" data-fill-palette-color="accent"></path><path d="M20 34.007c-5.514 0-10 4.486-10 10s4.486 10 10 10 10-4.486 10-10S25.514 34.007 20 34.007zM20 50.007c-3.309 0-6-2.691-6-6s2.691-6 6-6 6 2.691 6 6S23.309 50.007 20 50.007z" fill="#dd9242" data-fill-palette-color="accent"></path><circle cx="20" cy="44.007" r="4.0" fill="#dd9242" data-fill-palette-color="accent"></circle><path d="M48.448 31.041C50.039 29.133 51 26.681 51 24.007s-0.961-5.125-2.552-7.034l-5.748 5.748C42.887 23.113 43 23.546 43 24.007s-0.113 0.894-0.301 1.285L48.448 31.041z" fill="#dd9242" data-fill-palette-color="accent"></path><circle cx="40" cy="24.007" r="1.0" fill="#dd9242" data-fill-palette-color="accent"></circle><path d="M32.966 15.559l5.748 5.748c0.391-0.187 0.824-0.301 1.285-0.301s0.894 0.113 1.285 0.301l5.748-5.748c-1.908-1.592-4.36-2.552-7.034-2.552S34.875 13.968 32.966 15.559z" fill="#dd9242" data-fill-palette-color="accent"></path><path d="M58.759 20.981l-0.11-0.575c-0.489-2.547-1.469-4.918-2.912-7.046l-0.328-0.485 1.053-2.105-3.223-3.223-2.105 1.053-0.485-0.328c-2.128-1.443-4.499-2.423-7.046-2.912l-0.575-0.11-0.747-2.241h-4.559l-0.747 2.241-0.575 0.11c-2.547 0.489-4.918 1.469-7.046 2.912l-0.485 0.328-2.105-1.053-3.223 3.223 1.053 2.105-0.328 0.485c-1.443 2.128-2.423 4.499-2.912 7.046l-0.11 0.575L19 21.728v3.279h4.776l0.955 3.729c0.945 0.292 1.858 0.67 2.724 1.126l3.31-1.961 1.963 1.963 4.573-4.573C37.113 24.902 37 24.469 37 24.007s0.113-0.894 0.301-1.285l-5.748-5.748C29.961 18.882 29 21.334 29 24.007c0 0.949 0.121 1.89 0.358 2.797l-1.934 0.508C27.143 26.24 27 25.127 27 24.007c0-7.168 5.832-13 13-13s13 5.832 13 13-5.832 13-13 13c-1.066 0-2.129-0.13-3.157-0.386l0.482-1.941c0.871 0.217 1.771 0.327 2.675 0.327 2.673 0 5.125-0.961 7.034-2.552l-5.748-5.748c-0.391 0.187-0.824 0.301-1.285 0.301s-0.894-0.113-1.285-0.301l-4.573 4.573 1.963 1.963-1.961 3.31c0.456 0.865 0.834 1.778 1.126 2.724L39 40.231v4.776h3.279l0.747-2.241 0.575-0.11c2.547-0.489 4.918-1.469 7.046-2.912l0.485-0.328 2.105 1.053 3.223-3.224-1.053-2.104 0.328-0.485c1.443-2.128 2.423-4.499 2.912-7.046l0.11-0.575L61 26.287v-4.559L58.759 20.981zM41.057 40.975l-0.123-1.996C48.821 38.495 55 31.918 55 24.007c0-8.271-6.729-15-15-15-7.887 0-14.462 6.158-14.969 14.021l-1.996-0.129C23.609 13.988 31.062 7.007 40 7.007c9.374 0 17 7.626 17 17C57 32.973 49.997 40.426 41.057 40.975z" fill="#dd9242" data-fill-palette-color="accent"></path><rect x="59" y="59.007" width="2" height="2" fill="#dd9242" data-fill-palette-color="accent"></rect><polygon points="44.414,57.007 35,57.007 35,59.007 43.586,59.007 45.586,61.007 57,61.007 57,59.007 46.414,59.007  " fill="#dd9242" data-fill-palette-color="accent"></polygon><rect x="55" y="53.007" width="2" height="2" fill="#dd9242" data-fill-palette-color="accent"></rect><polygon points="35,53.007 43.586,53.007 45.586,55.007 53,55.007 53,53.007 46.414,53.007 44.414,51.007 35,51.007  " fill="#dd9242" data-fill-palette-color="accent"></polygon><rect x="3" y="4.007" width="2" height="2" fill="#dd9242" data-fill-palette-color="accent"></rect><polygon points="15.586,8.007 23,8.007 23,6.007 16.414,6.007 14.414,4.007 7,4.007 7,6.007 13.586,6.007  " fill="#dd9242" data-fill-palette-color="accent"></polygon><rect x="7" y="10.007" width="2" height="2" fill="#dd9242" data-fill-palette-color="accent"></rect><polygon points="11,10.007 11,12.007 14.586,12.007 16.586,14.007 21,14.007 21,12.007 17.414,12.007 15.414,10.007  " fill="#dd9242" data-fill-palette-color="accent"></polygon></g></svg></g></svg></g></svg></g></svg></g></svg></g></svg></g><defs></defs></svg><rect width="95.481" height="95.47770755172414" fill="none" stroke="none" visibility="hidden"></rect></g></svg></g></svg>